<?xml version="1.0" encoding="UTF-8" standalone="no"?>
<svg
   xmlns:dc="http://purl.org/dc/elements/1.1/"
   xmlns:cc="http://creativecommons.org/ns#"
   xmlns:rdf="http://www.w3.org/1999/02/22-rdf-syntax-ns#"
   xmlns:svg="http://www.w3.org/2000/svg"
   xmlns="http://www.w3.org/2000/svg"
   xmlns:sodipodi="http://sodipodi.sourceforge.net/DTD/sodipodi-0.dtd"
   xmlns:inkscape="http://www.inkscape.org/namespaces/inkscape"
   height="72"
   version="1.1"
   width="84"
   id="svg2"
   inkscape:version="0.48.4 r9939"
   sodipodi:docname="zhukov_body.svg">
  <metadata
     id="metadata1086">
    <rdf:RDF>
      <cc:Work
         rdf:about="">
        <dc:format>image/svg+xml</dc:format>
        <dc:type
           rdf:resource="http://purl.org/dc/dcmitype/StillImage" />
        <dc:title></dc:title>
      </cc:Work>
    </rdf:RDF>
  </metadata>
  <defs
     id="defs1084">
    <marker
       inkscape:stockid="EmptyDiamondS"
       orient="auto"
       refY="0"
       refX="0"
       id="EmptyDiamondS"
       style="overflow:visible">
      <path
         id="path3896"
         d="M 0,-7.0710768 -7.0710894,0 0,7.0710589 7.0710462,0 0,-7.0710768 z"
         style="fill:#ffffff;fill-rule:evenodd;stroke:#000000;stroke-width:1pt"
         transform="scale(0.2,0.2)"
         inkscape:connector-curvature="0" />
    </marker>
    <marker
       inkscape:stockid="EmptyDiamondL"
       orient="auto"
       refY="0"
       refX="0"
       id="EmptyDiamondL"
       style="overflow:visible">
      <path
         id="path3890"
         d="M 0,-7.0710768 -7.0710894,0 0,7.0710589 7.0710462,0 0,-7.0710768 z"
         style="fill:#ffffff;fill-rule:evenodd;stroke:#000000;stroke-width:1pt"
         transform="scale(0.8,0.8)"
         inkscape:connector-curvature="0" />
    </marker>
    <marker
       inkscape:stockid="SquareL"
       orient="auto"
       refY="0"
       refX="0"
       id="SquareL"
       style="overflow:visible">
      <path
         id="path3854"
         d="M -5,-5 -5,5 5,5 5,-5 -5,-5 z"
         style="fill-rule:evenodd;stroke:#000000;stroke-width:1pt"
         transform="scale(0.8,0.8)"
         inkscape:connector-curvature="0" />
    </marker>
    <marker
       inkscape:stockid="Arrow1Lstart"
       orient="auto"
       refY="0"
       refX="0"
       id="Arrow1Lstart"
       style="overflow:visible">
      <path
         id="path3784"
         d="M 0,0 5,-5 -12.5,0 5,5 0,0 z"
         style="fill-rule:evenodd;stroke:#000000;stroke-width:1pt"
         transform="matrix(0.8,0,0,0.8,10,0)"
         inkscape:connector-curvature="0" />
    </marker>
  </defs>
  <sodipodi:namedview
     pagecolor="#ffffff"
     bordercolor="#666666"
     borderopacity="1"
     objecttolerance="10"
     gridtolerance="10"
     guidetolerance="10"
     inkscape:pageopacity="0"
     inkscape:pageshadow="2"
     inkscape:window-width="1744"
     inkscape:window-height="942"
     id="namedview1082"
     showgrid="false"
     inkscape:zoom="7.2831998"
     inkscape:cx="73.655022"
     inkscape:cy="27.334745"
     inkscape:window-x="0"
     inkscape:window-y="0"
     inkscape:window-maximized="0"
     inkscape:current-layer="svg2"
     fit-margin-top="0"
     fit-margin-left="0"
     fit-margin-right="0"
     fit-margin-bottom="0" />
  <path
     style="fill:#000000;fill-opacity:1"
     d="M 30.09375,7.625 C 27.970801,7.625 26.856279,7.7492751 26.25,8 c -0.606279,0.2507249 -1.022278,0.646213 -1.875,1.84375 -0.903891,1.269398 -1.207159,1.745294 -1.46875,5.1875 -0.261591,3.442206 -0.28125,9.536377 -0.28125,20.9375 0,19.671584 0.471596,24.65719 1.34375,26.34375 0.597458,1.155356 0.92265,1.554579 1.28125,1.75 0.3586,0.195421 1.102653,0.3125 2.65625,0.3125 0.909988,0 1.87347,-0.124896 2.625,-0.34375 0.75153,-0.218854 1.275503,-0.637287 1.1875,-0.53125 0.636885,-0.767399 1.439832,-1.170262 2.3125,-1.5 0.872668,-0.329738 1.814714,-0.552832 2.78125,-0.5625 1.471338,-0.01472 3.799554,-0.03125 5.1875,-0.03125 1.387948,0 3.716168,0.01653 5.1875,0.03125 0.966538,0.0097 1.908582,0.232761 2.78125,0.5625 0.872668,0.329739 1.675616,0.732602 2.3125,1.5 -0.088,-0.106037 0.435971,0.312397 1.1875,0.53125 0.751529,0.218853 1.715012,0.34375 2.625,0.34375 1.548507,0 2.446729,-0.123556 2.9375,-0.4375 0.490771,-0.313944 0.963999,-0.933015 1.375,-2.71875 0.822002,-3.571469 0.96875,-11.135295 0.96875,-25.25 0,-11.401123 -0.01966,-17.495294 -0.28125,-20.9375 C 60.832159,11.589044 60.528891,11.113148 59.625,9.84375 58.772278,8.646213 58.356279,8.2507249 57.75,8 57.143721,7.7492751 56.029199,7.625 53.90625,7.625 c -1.676129,0 -2.858608,0.1071829 -3.5,0.28125 -0.641392,0.1740671 -0.562015,0.2364231 -0.53125,0.15625 -0.320714,0.8357681 -0.928547,1.2648563 -1.5,1.5625 -0.571453,0.2976437 -1.202259,0.502962 -1.875,0.65625 -1.345483,0.306575 -2.912596,0.4375 -4.5,0.4375 -1.587404,0 -3.154517,-0.130925 -4.5,-0.4375 C 36.827259,10.127962 36.196453,9.9226437 35.625,9.625 35.053547,9.3273563 34.445714,8.8982681 34.125,8.0625 34.155765,8.1426731 34.235142,8.0803171 33.59375,7.90625 32.952358,7.7321829 31.769879,7.625 30.09375,7.625 z"
     id="path4435"
     inkscape:connector-curvature="0"
     sodipodi:nodetypes="ssssssssscssscscsssssssssscssssscss" />
  <path
     style="fill:#f7f7f7;fill-opacity:1;stroke:none"
     d="m 26.12176,12.960016 -1.922232,6.041301 0.06865,39.165478 35.526967,-0.06865 0.549209,-42.117476 -4.942882,-3.844464 -14.485391,2.093859 z"
     id="path4462"
     inkscape:connector-curvature="0" />
  <path
     sodipodi:type="star"
     style="fill:none;stroke:#79492e;stroke-width:0.4832114;stroke-linejoin:miter;stroke-miterlimit:4;stroke-opacity:1;stroke-dasharray:none;stroke-dashoffset:0;opacity:0.41422594000000001"
     id="path2996"
     sodipodi:sides="6"
     sodipodi:cx="7.4143233"
     sodipodi:cy="36.850616"
     sodipodi:r1="39.268452"
     sodipodi:r2="34.007477"
     sodipodi:arg1="0"
     sodipodi:arg2="0.52359878"
     inkscape:flatsided="true"
     inkscape:rounded="0"
     inkscape:randomized="0"
     d="m 46.682775,36.850616 -19.634226,34.007477 -39.268452,0 -19.634225,-34.007477 19.634225,-34.0074763 39.268452,0 z"
     transform="matrix(1.0347438,0,0,1.0347438,34.342574,-1.9213592)" />
  <path
     inkscape:connector-curvature="0"
     id="path4454"
     d="M 28.049244,64 24.233263,64 23.630286,61.75 23.027309,59.5 23.013655,35.25 23,11 l 1,0 1,0 0,-1.5 0,-1.5 5.059017,0 5.059017,0 -0.553273,0.8952152 -0.553274,0.8952152 1.576044,0.6047846 C 36.454355,10.727847 39.339966,11 42,11 c 2.660034,0 5.545645,-0.272153 6.412469,-0.604785 L 49.988513,9.7904304 49.435239,8.8952152 48.881966,8 53.940983,8 59,8 l 0,1.5 0,1.5 1,0 1,0 L 60.98635,35.25 60.9727,59.5 60.369723,61.75 59.766737,64 55.950756,64 52.134775,64 51.5,62 50.865225,60 49.432612,60 48,60 l 0,1 0,1 -2,0 -2,0 0,-1 0,-1 -2,0 -2,0 0,1 0,1 -2,0 -2,0 0,-1 0,-1 -1.432612,0 -1.432613,0 L 32.5,62 31.865225,64 28.049244,64 z M 28,60.727636 l 4.5,0 -2.25,-0.433369 c -1.2375,-0.238353 -3.2625,-0.238353 -4.5,0 l -2.25,0.433369 4.5,0 z m 27.5,0.02018 4,-0.02018 -2.261659,-0.434897 c -1.243913,-0.239193 -3.043913,-0.230112 -4,0.02018 L 51.5,60.767997 l 4,-0.02018 z M 28.71966,56.810365 32.439321,56.5 32.538139,52.75 32.636957,49 28.5,49 l -4.136957,0 0.211324,3.75 c 0.116228,2.0625 0.259543,3.889664 0.318478,4.060365 0.05893,0.170701 1.781002,0.170701 3.826815,0 z M 42.339399,56.799159 47.5,56.5 l 0,-1.5 0,-1.5 -4.889511,-0.310489 -4.889511,-0.310489 -0.973357,0.973357 -0.973356,0.973356 0.702266,1.136292 0.702267,1.136291 5.160601,-0.299159 z M 55.71966,56.810365 59.439321,56.5 59.538139,52.75 59.636957,49 55.5,49 l -4.136957,0 0.211324,3.75 c 0.116228,2.0625 0.259543,3.889664 0.318478,4.060365 0.05893,0.170701 1.781002,0.170701 3.826815,0 z M 42.339399,51.799159 47.5,51.5 l 0,-1.5 0,-1.5 -4.889511,-0.310489 -4.889511,-0.310489 -0.973357,0.973357 -0.973356,0.973356 0.702266,1.136292 0.702267,1.136291 5.160601,-0.299159 z M 28.972222,47.921053 33.5,47.842105 32.25,47.337719 31,46.833333 31,42.916667 31,39 l -3.277778,0 -3.277778,0 0,4.5 0,4.5 4.527778,-0.07895 z m 26.055556,0 4.527778,0.07895 0,-4.5 0,-4.5 -3.277778,0 L 53,39 l 0,3.916667 0,3.916666 -1.25,0.504386 -1.25,0.504386 4.527778,0.07895 z M 42,47 l 6,0 0,-1.90638 0,-1.906381 -2,0.523012 c -1.1,0.287656 -2,0.824099 -2,1.192095 l 0,0.669083 -2,0 -2,0 0,-0.669083 C 40,44.53435 39.1,43.997907 38,43.710251 L 36,43.187239 36,45.09362 36,47 l 6,0 z m 0,-4.030626 c 0.275,0 1.038746,-0.342486 1.697214,-0.76108 l 1.197213,-0.76108 -0.697213,-0.973607 C 43.813746,39.938123 42.825,39.5 42,39.5 c -0.825,0 -1.813746,0.438123 -2.197214,0.973607 l -0.697213,0.973607 1.197213,0.76108 C 40.961254,42.626888 41.725,42.969374 42,42.969374 z m -4.794818,-2.75253 c 0.868804,-0.705735 2.132653,-2.618235 2.808551,-4.25 C 40.689632,34.33508 41.583452,33 42,33 c 0.416548,0 1.310368,1.33508 1.986267,2.966844 0.675898,1.631765 1.939747,3.544265 2.808551,4.25 L 48.374462,41.5 47.682966,39.657099 c -0.380322,-1.013595 -0.959312,-2.90997 -1.286645,-4.214165 L 45.801172,33.07167 43.900586,32.468447 42,31.865225 l -1.900586,0.603222 -1.900586,0.603223 -0.595149,2.371264 c -0.327333,1.304195 -0.906323,3.20057 -1.286645,4.214165 L 35.625538,41.5 37.205182,40.216844 z M 33.583333,39.921053 35.5,39.842105 34.1875,39.316886 32.875,38.791667 32.270833,39.395833 31.666667,40 33.583333,39.92105 z m 17,0 L 52.5,39.842105 51.1875,39.316886 49.875,38.791667 49.270833,39.395833 48.666667,40 50.583333,39.921053 z M 27.722222,38 31,38 l 0,-4.5 0,-4.5 -3.277778,0 -3.277778,0 0,4.5 0,4.5 3.277778,0 z m 28.555556,0 3.277778,0 0,-4.5 0,-4.5 -3.277778,0 L 53,29 l 0,4.5 0,4.5 3.277778,0 z M 36.80887,29 c 0.444879,0 1.682379,-0.660688 2.75,-1.468197 L 41.5,26.063607 40.285184,26.031803 39.070368,26 38.03877,24.072442 37.007172,22.144884 37.610575,20.572442 38.213978,19 42,19 l 3.786022,0 0.603403,1.572442 0.603403,1.572442 L 45.96123,24.072442 44.929632,26 43.714816,26.0318 42.5,26.0636 44.44113,27.531796 C 45.508751,28.339312 46.746251,29 47.19113,29 L 48,29 l 0,-5.5 0,-5.5 -6,0 -6,0 0,5.5 0,5.5 0.80887,0 z M 27.722222,28 31,28 l 0,-4.5 0,-4.5 -3.277778,0 -3.277778,0 0,4.5 0,4.5 3.277778,0 z M 27.5,24.666667 l -1.5,0 0,-0.833334 L 26,23 l 1.5,0 1.5,0 0,0.833333 0,0.833334 -1.5,0 z M 42,25 c 0.415311,0 1.298951,-0.655288 1.963645,-1.456195 l 1.208535,-1.456195 -0.54375,-0.879805 -0.543749,-0.879806 -2.02197,0.148963 c -1.112083,0.08193 -2.320261,0.447255 -2.684841,0.811834 l -0.662871,0.662872 1.264945,1.524166 C 40.675664,24.314125 41.584689,25 42,25 z m 0.375,-1.291667 c -0.55,0.183334 -1.309375,0.02396 -1.6875,-0.354166 -0.378125,-0.378125 -0.680609,-1.175 -0.672187,-1.770834 L 40.030626,20.5 41.015313,22 42,23.5 43.076131,22 44.152262,20.5 43.763631,21.9375 C 43.549884,22.728125 42.925,23.525 42.375,23.708333 z m 13.781335,0.76156 c 1.162853,-0.223945 2.35339,-0.646285 2.645638,-0.938533 L 59.333333,23 58.166667,22.875 C 57.525,22.80625 56.4375,22.66456 55.75,22.560134 c -0.6875,-0.104426 -1.59484,-0.01708 -2.016312,0.194098 l -0.766312,0.383965 0.53734,0.869434 0.53734,0.869435 2.114279,-0.407173 z M 55.940983,21 58.881966,21 59.5,20 60.118034,19 56.559017,19 53,19 l 0,1 0,1 2.940983,0 z m -26.076456,-3 4.011175,0 -0.136566,-1.812963 -0.136566,-1.812963 -3.544411,0.09838 -3.54441,0.09838 L 26.18355,16.285417 25.853352,18 l 4.011175,0 z m 24.270946,0 4.011175,0 -0.330198,-1.714583 -0.330199,-1.714583 -3.54441,-0.09838 -3.544411,-0.09838 -0.136566,1.812963 L 50.124298,18 l 4.011175,0 z"
     style="fill:#cbcbcb" />
  <path
     inkscape:connector-curvature="0"
     id="path4452"
     d="m 28,63.727636 -4.5,0 2.25,-0.433369 c 1.2375,-0.238353 3.2625,-0.238353 4.5,0 l 2.25,0.433369 z m 28,0 -4.5,0 2.25,-0.433369 c 1.2375,-0.238353 3.2625,-0.238353 4.5,0 l 2.25,0.433369 z M 28.666667,62 24.333333,62 23.666667,61.333333 23,60.666667 23,35.833333 23,11 l 1,0 1,0 0,-1.5 0,-1.5 5.122445,0 5.122444,0 -1.235751,1.4889895 -1.235752,1.4889895 -1.041201,-0.643498 -1.041202,-0.643498 0.659272,1.066724 0.659271,1.066723 -1.475819,-0.216604 -2.144243,-0.885028 -0.668424,-0.668425 -0.86052,0.53183 L 26,11.118034 26,15.059017 26,19 l -1,0 -1,0 0,19 0,19 4.5,0 4.5,0 0,0.75 0,0.75 9,0 9,0 0,-0.75 0,-0.75 4.5,0 4.5,0 0,-14.299199 0,-14.2992 -9.678603,0.339955 L 49.858025,52.75 49.71605,58.5 48.869619,51.5 48.358639,34.076252 42,30.94864 35.435408,32.634578 35.130381,51.5 l -0.846431,7 -0.141975,-5.75 -0.310794,-38.5 -0.322055,-3.75 6.179775,0.338228 6.179774,0.338228 2.080183,-0.660224 L 50.029042,9.8560072 49.455504,8.9280036 48.881966,8 53.940983,8 59,8 l 0,1.5 0,1.5 1.017171,0 1.017171,0 L 60.767171,36.25 60.5,61.5 55.75,61.804791 51,62.109582 51,61.054791 51,60 l -1.5,0 -1.5,0 0,1 0,1 -2,0 -2,0 0,-1 0,-1 -2,0 -2,0 0,1 0,1 -2,0 -2,0 0,-1 0,-1 -1.5,0 -1.5,0 0,1 0,1 z M 28,60.727636 l 4.5,0 -2.25,-0.433369 c -1.2375,-0.238353 -3.2625,-0.238353 -4.5,0 l -2.25,0.433369 z m 28,0 4.5,0 -2.25,-0.433369 c -1.2375,-0.238353 -3.2625,-0.238353 -4.5,0 l -2.25,0.433369 z m -28,-2 4.5,0 -2.25,-0.433369 c -1.2375,-0.238353 -3.2625,-0.238353 -4.5,0 l -2.25,0.433369 z m 28,0 4.5,0 -2.25,-0.433369 c -1.2375,-0.238353 -3.2625,-0.238353 -4.5,0 L 51.5,58.727636 z M 35.583971,31.252505 42,29.5 44.84617,31.115203 48.378851,32.799058 48.52617,27.683854 48.608713,17.25 49.230447,12 42,12 34.769553,12 z M 38.5,29.419101 c -3.212301,1.277673 -1.044313,0.153701 0.75,-0.887385 l 2.75,-1.595591 2.75,1.595591 2.75,1.59559 -2,-0.708205 c -1.1,-0.389512 -2.675,-0.708204 -3.5,-0.708204 -0.825,0 -2.4,0.318692 -3.5,0.708204 z M 42,26 l -1.755111,0 -1.20502,-1.451961 -1.20502,-1.45196 0.34627,-1.79804 L 38.52739,19.5 42,19.5 l 3.47261,0 0.346271,1.798039 0.34627,1.79804 -1.20502,1.45196 L 43.755111,26 z M 42.458849,24.792183 44.5,24.5 44.819551,22.25 45.139102,20 42.069551,20 39,20 l 0,1.833333 c 0,1.008334 0.318982,2.152316 0.708849,2.542183 l 0.708849,0.708849 z M 41.726697,17 35.881966,17 36.093974,16.656964 36.433129,16.1082 36.984292,15.216399 40.492146,15.556336 44,15.896273 44,15.103114 44,14.309954 40,14.5 36,14.690046 36,13.845023 36,13 l 5.785714,0 5.785715,0 0,2 0,2 z M 56,28 l 3,0 0,-1 0,-1 -3,0 z m 0.441789,-3.4 2.441789,0 0.616201,-2.455143 0.616202,-2.455143 L 59.132486,19.081881 58.148992,18.474048 57.824496,14.487024 57.5,10.5 55,10.438648 52.5,10.377295 51.25,11.311092 50,12.244889 50,15.122445 C 49.903058,17.456462 53.893588,21 56.166667,21 l 3.166666,0 -0.75,0.75 c -0.4125,0.4125 -1.6125,0.75 -2.666666,0.75 l -6.447642,0.137302 0,0.75 c 0,0.4125 0,0.885 0,1.05 0,0.165 5.62978,0.162698 6.972764,0.162698 z M 24.689326,16.75 c 0.251527,-0.9625 0.251527,-2.5375 0,-3.5 l -0.457323,-1.75 0,3.5 0,3.5 z m 35,0 c 0.251527,-0.9625 0.251527,-2.5375 0,-3.5 l -0.457323,-1.75 0,3.5 0,3.5 z M 42.159861,43.807498 c -2.287923,0.169124 -4.194291,0.169124 -4.236372,0 C 37.881408,43.638374 37.696225,42.7125 37.511973,41.75 L 37.176968,40 37.967164,40 C 38.401771,40 39.316548,38.65 40,37 c 0.683452,-1.65 1.583452,-3 2,-3 0.416548,0 1.316548,1.35 2,3 0.683452,1.65 1.598229,3 2.032836,3 l 0.790196,0 -0.251655,1.75 -0.251655,1.75 z M 42,43 l 1.881966,0 0.571721,-0.925064 0.571721,-0.925065 -1.173219,-2.574935 C 43.206919,37.158721 42.373433,36 42,36 c -0.373433,0 -1.206919,1.158721 -1.852189,2.574936 l -1.173219,2.574935 0.571721,0.925065 L 40.118034,43 z m 0,-3 c -0.55,0 -1,-0.45 -1,-1 0,-0.55 0.45,-1 1,-1 0.55,0 1,0.45 1,1 0,0.55 -0.45,1 -1,1 z m -14.5,-15.333333 -1.5,0 0,-0.833334 L 26,23 l 1.5,0 1.5,0 0,0.833333 0,0.833334 z"
     style="fill:#7c7c7c"
     sodipodi:nodetypes="ccssccccssccccccccccccccccccccccccccccccccccccccccccccccccccccccccccccccccccccccccccccccccccccccccccccccccssccccssccccssccccsscccccccccccccccccccccccccccccccccccccccssccccccccccccccccccccccccccsccccccccccccccsscssssscccssscccsssscssssscccsccccsssccccsssssccccccccc" />
  <path
     inkscape:connector-curvature="0"
     id="path4450"
     d="m 28,63.727636 -4.5,0 2.25,-0.433369 c 1.2375,-0.238353 3.2625,-0.238353 4.5,0 l 2.25,0.433369 z m 28,0 -4.5,0 2.25,-0.433369 c 1.2375,-0.238353 3.2625,-0.238353 4.5,0 l 2.25,0.433369 z M 28.583333,62 l -4.25,0 L 23.666667,61.333333 23,60.666667 23,36.344764 23,12.022862 24.722241,10.011431 26.444482,8 l 3.67077,0 3.67077,0 0.575604,1.5 L 34.93723,11 42,11 l 7.06277,0 0.575604,-1.5 0.575604,-1.5 3.67077,0 3.67077,0 1.739641,2.031753 L 61.0348,12.063506 60.7674,36.781753 60.5,61.5 l -4.400891,0.314871 -4.40089,0.31487 -0.818597,-1.31487 L 50.061025,59.5 48.030513,60.758474 46,62.016948 44,60.767927 42,59.518906 40,60.767927 38,62.016948 35.869347,60.758474 33.738693,59.5 33.286013,60.75 32.833333,62 z M 28,60.727636 l 4.5,0 -2.25,-0.433369 c -1.2375,-0.238353 -3.2625,-0.238353 -4.5,0 l -2.25,0.433369 z m 28,0 4.5,0 -2.25,-0.433369 c -1.2375,-0.238353 -3.2625,-0.238353 -4.5,0 l -2.25,0.433369 z m -28,-2 4.5,0 -2.25,-0.433369 c -1.2375,-0.238353 -3.2625,-0.238353 -4.5,0 L 23.5,58.727636 z M 42,59 l 9,0 0,-1 0,-1 4.5,0 L 60,57 60,38.059017 60,19.118034 59,18.5 58,17.881966 58,13.440983 58,9 l -3.432612,0 -3.432613,0 -0.553599,1.75 -0.5536,1.75 -7.763788,0 L 34.5,12.5 33.782224,10.75 33.064448,9 29.532224,9 26,9 26,13.440983 26,17.881966 25,18.5 24,19.118034 24,38.059017 24,57 l 4.5,0 4.5,0 0,1 0,1 z m -14.5,-34.333333 -1.5,0 0,-0.833334 L 26,23 l 1.5,0 1.5,0 0,0.833333 0,0.833334 z m 14.5,-4.824562 -2.5,0 1.25,-0.504386 1.25,-0.504386 1.25,0.504386 1.25,0.504386 z m 14,38.885531 4.5,0 -2.25,-0.433369 c -1.2375,-0.238353 -3.2625,-0.238353 -4.5,0 L 51.5,58.727636 z M 24.689326,16.75 c 0.251527,-0.9625 0.251527,-2.5375 0,-3.5 l -0.457323,-1.75 0,3.5 0,3.5 z m 35,0 c 0.251527,-0.9625 0.251527,-2.5375 0,-3.5 l -0.457323,-1.75 0,3.5 0,3.5 z"
     style="fill:#1c1c1c"
     sodipodi:nodetypes="ccssccccsscccccccccccccccccccccccccccccccccccccccccssccccssccccsscccccccccccccccccccccccccccccccccccccccccccccccccccccssccsscccssscccs" />
</svg>
